<svg width="66" height="42" viewBox="0 0 66 42" fill="none" xmlns="http://www.w3.org/2000/svg">
<g clip-path="url(#clip0_753_5115)">
<path d="M54.7182 19.2549V11.3726H45.0333V0H37.2139V11.3726H22.5144V19.2549H37.2139V34.1222H22.5144V42H37.2139H45.0333V19.2549H54.7182Z" fill="white"/>
<path d="M23.2928 30.6274V22.7451H7.81497V7.87782H23.2928V0H7.81497H0V7.87782V22.7451V30.6274V42H7.81497V30.6274H23.2928Z" fill="white"/>
<path d="M60.3592 30.627C58.8631 30.627 57.4283 31.226 56.3704 32.2924C55.3126 33.3588 54.7183 34.8051 54.7183 36.3132C54.7183 37.8213 55.3126 39.2677 56.3704 40.334C57.4283 41.4004 58.8631 41.9995 60.3592 41.9995C61.8552 41.9995 63.29 41.4004 64.3479 40.334C65.4058 39.2677 66.0001 37.8213 66.0001 36.3132C66.0001 34.8051 65.4058 33.3588 64.3479 32.2924C63.29 31.226 61.8552 30.627 60.3592 30.627Z" fill="white"/>
</g>
<defs>
<clipPath id="clip0_753_5115">
<rect width="66" height="42" fill="white"/>
</clipPath>
</defs>
</svg>
